<svg width="422" height="130" viewBox="0 0 422 130" fill="none" xmlns="http://www.w3.org/2000/svg">
<rect width="422" height="130" rx="10" fill="#222338"/>
<path d="M19.8659 28.144C19.3939 28.144 18.9539 28.06 18.5459 27.892C18.1379 27.724 17.7859 27.488 17.4899 27.184C17.1939 26.872 16.9739 26.504 16.8299 26.08L17.8259 25.672C17.9939 26.12 18.2579 26.468 18.6179 26.716C18.9779 26.964 19.3939 27.088 19.8659 27.088C20.2339 27.088 20.5619 27.016 20.8499 26.872C21.1379 26.728 21.3619 26.52 21.5219 26.248C21.6899 25.976 21.7739 25.648 21.7739 25.264C21.7739 24.872 21.6899 24.544 21.5219 24.28C21.3619 24.008 21.1379 23.8 20.8499 23.656C20.5619 23.512 20.2299 23.44 19.8539 23.44C19.7339 23.44 19.6019 23.448 19.4579 23.464C19.3219 23.48 19.2059 23.504 19.1099 23.536L18.8579 22.996L21.2459 20.08H17.2859V19.06H22.5779V20.044L20.2979 22.852L20.2259 22.54C20.7619 22.556 21.2339 22.68 21.6419 22.912C22.0499 23.144 22.3699 23.46 22.6019 23.86C22.8339 24.252 22.9499 24.712 22.9499 25.24C22.9499 25.784 22.8179 26.276 22.5539 26.716C22.2899 27.156 21.9259 27.504 21.4619 27.76C20.9979 28.016 20.4659 28.144 19.8659 28.144Z" fill="#EBEDFA"/>
<path d="M17.0562 62V61.184L19.5282 58.508C20.0162 57.988 20.4042 57.56 20.6922 57.224C20.9882 56.888 21.2042 56.588 21.3402 56.324C21.4762 56.06 21.5442 55.78 21.5442 55.484C21.5442 54.996 21.4002 54.62 21.1122 54.356C20.8242 54.092 20.4442 53.96 19.9722 53.96C19.4922 53.96 19.0842 54.1 18.7482 54.38C18.4122 54.652 18.1802 55.04 18.0522 55.544L16.9842 55.268C17.0882 54.788 17.2802 54.372 17.5602 54.02C17.8402 53.668 18.1882 53.396 18.6042 53.204C19.0202 53.012 19.4762 52.916 19.9722 52.916C20.5162 52.916 20.9922 53.024 21.4002 53.24C21.8162 53.448 22.1402 53.74 22.3722 54.116C22.6122 54.492 22.7322 54.928 22.7322 55.424C22.7322 55.752 22.6642 56.072 22.5282 56.384C22.3922 56.696 22.1922 57.028 21.9282 57.38C21.6642 57.724 21.3202 58.124 20.8962 58.58L18.6882 60.98H22.9242V62H17.0562Z" fill="#EBEDFA"/>
<path d="M19.845 96V88.08H18.153V87.06H21.033V96H19.845Z" fill="#EBEDFA"/>
<line x1="44.5" y1="16" x2="44.5" y2="96" stroke="#F5F5F7"/>
<path d="M44.068 116.144C43.5 116.144 42.98 116.04 42.508 115.832C42.036 115.616 41.636 115.324 41.308 114.956C40.98 114.588 40.744 114.176 40.6 113.72L41.62 113.3C41.836 113.876 42.156 114.32 42.58 114.632C43.012 114.936 43.516 115.088 44.092 115.088C44.444 115.088 44.752 115.032 45.016 114.92C45.28 114.808 45.484 114.652 45.628 114.452C45.78 114.244 45.856 114.004 45.856 113.732C45.856 113.356 45.748 113.06 45.532 112.844C45.324 112.62 45.016 112.452 44.608 112.34L42.964 111.836C42.316 111.636 41.82 111.32 41.476 110.888C41.132 110.456 40.96 109.96 40.96 109.4C40.96 108.912 41.076 108.484 41.308 108.116C41.548 107.74 41.876 107.448 42.292 107.24C42.716 107.024 43.196 106.916 43.732 106.916C44.268 106.916 44.752 107.012 45.184 107.204C45.624 107.396 45.996 107.656 46.3 107.984C46.604 108.304 46.828 108.672 46.972 109.088L45.964 109.508C45.772 109.004 45.484 108.624 45.1 108.368C44.716 108.104 44.264 107.972 43.744 107.972C43.424 107.972 43.14 108.028 42.892 108.14C42.652 108.244 42.464 108.4 42.328 108.608C42.2 108.808 42.136 109.048 42.136 109.328C42.136 109.656 42.24 109.948 42.448 110.204C42.656 110.46 42.972 110.656 43.396 110.792L44.896 111.236C45.6 111.452 46.132 111.76 46.492 112.16C46.852 112.56 47.032 113.056 47.032 113.648C47.032 114.136 46.904 114.568 46.648 114.944C46.4 115.32 46.052 115.616 45.604 115.832C45.164 116.04 44.652 116.144 44.068 116.144Z" fill="#EBEDFA"/>
<line x1="105" y1="16" x2="105" y2="96" stroke="#F5F5F7"/>
<path d="M99.996 116V107.06H101.076L104.424 111.824H103.872L107.196 107.06H108.276V116H107.088V108.548L107.508 108.68L104.184 113.36H104.088L100.8 108.68L101.172 108.548V116H99.996Z" fill="#EBEDFA"/>
<line x1="165" y1="16" x2="165" y2="96" stroke="#F5F5F7"/>
<path d="M163.556 116V108.14H161.132V107.06H167.132V108.14H164.744V116H163.556Z" fill="#EBEDFA"/>
<line x1="225.5" y1="16" x2="225.5" y2="96" stroke="#F5F5F7"/>
<path d="M221.64 116L219.132 107.06H220.368L222.468 114.932H222.18L224.364 107.06H225.6L227.772 114.932H227.472L229.584 107.06H230.82L228.312 116H227.004L224.82 108.164H225.132L222.948 116H221.64Z" fill="#EBEDFA"/>
<line x1="286" y1="16" x2="286" y2="96" stroke="#F5F5F7"/>
<path d="M284.556 116V108.14H282.132V107.06H288.132V108.14H285.744V116H284.556Z" fill="#EBEDFA"/>
<line x1="344" y1="16" x2="344" y2="96" stroke="#F5F5F7"/>
<path d="M340.996 116V107.06H346.66V108.14H342.172V111.032H346.24V112.112H342.172V116H340.996Z" fill="#EBEDFA"/>
<line x1="402.5" y1="16" x2="402.5" y2="96" stroke="#F5F5F7"/>
<path d="M402.068 116.144C401.5 116.144 400.98 116.04 400.508 115.832C400.036 115.616 399.636 115.324 399.308 114.956C398.98 114.588 398.744 114.176 398.6 113.72L399.62 113.3C399.836 113.876 400.156 114.32 400.58 114.632C401.012 114.936 401.516 115.088 402.092 115.088C402.444 115.088 402.752 115.032 403.016 114.92C403.28 114.808 403.484 114.652 403.628 114.452C403.78 114.244 403.856 114.004 403.856 113.732C403.856 113.356 403.748 113.06 403.532 112.844C403.324 112.62 403.016 112.452 402.608 112.34L400.964 111.836C400.316 111.636 399.82 111.32 399.476 110.888C399.132 110.456 398.96 109.96 398.96 109.4C398.96 108.912 399.076 108.484 399.308 108.116C399.548 107.74 399.876 107.448 400.292 107.24C400.716 107.024 401.196 106.916 401.732 106.916C402.268 106.916 402.752 107.012 403.184 107.204C403.624 107.396 403.996 107.656 404.3 107.984C404.604 108.304 404.828 108.672 404.972 109.088L403.964 109.508C403.772 109.004 403.484 108.624 403.1 108.368C402.716 108.104 402.264 107.972 401.744 107.972C401.424 107.972 401.14 108.028 400.892 108.14C400.652 108.244 400.464 108.4 400.328 108.608C400.2 108.808 400.136 109.048 400.136 109.328C400.136 109.656 400.24 109.948 400.448 110.204C400.656 110.46 400.972 110.656 401.396 110.792L402.896 111.236C403.6 111.452 404.132 111.76 404.492 112.16C404.852 112.56 405.032 113.056 405.032 113.648C405.032 114.136 404.904 114.568 404.648 114.944C404.4 115.32 404.052 115.616 403.604 115.832C403.164 116.04 402.652 116.144 402.068 116.144Z" fill="#EBEDFA"/>
<path d="M44 105L88.5556 81.1899C97.1341 76.6056 107.403 76.4648 116.104 80.8121L146.901 96.1997C157.595 101.543 170.44 100.027 179.596 92.3418L208.389 68.1759C218.437 59.7419 232.801 58.8153 243.85 65.8884L271.53 83.6082C280.517 89.3609 291.882 89.9076 301.379 85.0439L335.692 67.4713C341.273 64.6133 347.609 63.5756 353.81 64.5042L402 71.7203" stroke="#EBEDF7" stroke-width="3" stroke-linecap="round"/>
<path d="M44 96.5323L87.075 68.9568C97.8587 62.0533 111.835 62.755 121.874 70.7037L141.703 86.4056C154.678 96.6798 173.522 94.5059 183.816 81.5474L204.794 55.1414C215.599 41.5411 235.66 39.9306 248.496 51.633L270.418 71.6201C279.45 79.8537 292.572 81.7861 303.593 76.5055L335.3 61.3134C340.601 58.7734 346.532 57.8468 352.355 58.6486L402 65.4839" stroke="#141522" stroke-width="3" stroke-linecap="round"/>
</svg>
