<svg width="40" height="40" viewBox="0 0 40 40" fill="none" xmlns="http://www.w3.org/2000/svg">
<path d="M26.9833 3.33334H13.0167C6.95001 3.33334 3.33334 6.95 3.33334 13.0167V26.9667C3.33334 33.05 6.95001 36.6667 13.0167 36.6667H26.9667C33.0333 36.6667 36.65 33.05 36.65 26.9833V13.0167C36.6667 6.95 33.05 3.33334 26.9833 3.33334ZM19.1667 28.75C19.1667 29.35 18.5667 29.75 18.0167 29.5167C16 28.65 13.3667 27.85 11.5333 27.6167L11.2167 27.5833C10.2 27.45 9.36668 26.5 9.36668 25.4667V12.6333C9.36668 11.35 10.4 10.4 11.6667 10.5C13.75 10.6667 16.8333 11.6667 18.7667 12.7667C19.0333 12.9167 19.1667 13.2 19.1667 13.4833V28.75ZM30.6333 25.45C30.6333 26.4833 29.8 27.4333 28.7833 27.5667L28.4333 27.6C26.6167 27.85 24 28.6333 21.9833 29.4833C21.4333 29.7167 20.8333 29.3167 20.8333 28.7167V13.4667C20.8333 13.1667 20.9833 12.8833 21.25 12.7333C23.1833 11.65 26.2 10.6833 28.25 10.5H28.3167C29.6 10.5 30.6333 11.5333 30.6333 12.8167V25.45Z" fill="#546FFF"/>
</svg>
