<svg width="18" height="18" viewBox="0 0 18 18" fill="none" xmlns="http://www.w3.org/2000/svg">
<path d="M16.5 12.555V3.5025C16.5 2.6025 15.765 1.935 14.8725 2.01H14.8275C13.2525 2.145 10.86 2.9475 9.525 3.7875L9.3975 3.87C9.18 4.005 8.82 4.005 8.6025 3.87L8.415 3.7575C7.08 2.925 4.695 2.13 3.12 2.0025C2.2275 1.9275 1.5 2.6025 1.5 3.495V12.555C1.5 13.275 2.085 13.95 2.805 14.04L3.0225 14.07C4.65 14.2875 7.1625 15.1125 8.6025 15.9L8.6325 15.915C8.835 16.0275 9.1575 16.0275 9.3525 15.915C10.7925 15.12 13.3125 14.2875 14.9475 14.07L15.195 14.04C15.915 13.95 16.5 13.275 16.5 12.555Z" stroke="#EBEDFA" stroke-width="1.5" stroke-linecap="round" stroke-linejoin="round"/>
<path d="M9 4.1175V15.3675" stroke="#EBEDFA" stroke-width="1.5" stroke-linecap="round" stroke-linejoin="round"/>
<path d="M5.8125 6.3675H4.125" stroke="#EBEDFA" stroke-width="1.5" stroke-linecap="round" stroke-linejoin="round"/>
<path d="M6.375 8.6175H4.125" stroke="#EBEDFA" stroke-width="1.5" stroke-linecap="round" stroke-linejoin="round"/>
</svg>
