<svg xmlns="http://www.w3.org/2000/svg" width="20" height="20" viewBox="0 0 20 20" fill="none">
  <path d="M4.66667 8C3.75 8 3 8.75 3 9.66667C3 10.5833 3.75 11.3333 4.66667 11.3333C5.58333 11.3333 6.33333 10.5833 6.33333 9.66667C6.33333 8.75 5.58333 8 4.66667 8Z" fill="#EBEDFA" stroke="#EBEDFA"/>
  <path d="M15.8334 8.33334C14.9167 8.33334 14.1667 9.08334 14.1667 10C14.1667 10.9167 14.9167 11.6667 15.8334 11.6667C16.75 11.6667 17.5 10.9167 17.5 10C17.5 9.08334 16.75 8.33334 15.8334 8.33334Z" fill="#EBEDFA" stroke="#EBEDFA"/>
  <path d="M9.99998 8.33334C9.08331 8.33334 8.33331 9.08334 8.33331 10C8.33331 10.9167 9.08331 11.6667 9.99998 11.6667C10.9166 11.6667 11.6666 10.9167 11.6666 10C11.6666 9.08334 10.9166 8.33334 9.99998 8.33334Z" fill="#EBEDFA" stroke="#EBEDFA"/>
</svg>