<svg width="19" height="20" viewBox="0 0 19 20" fill="none" xmlns="http://www.w3.org/2000/svg">
<path d="M17.7863 7.2394V13.0106C17.7863 13.9556 17.28 14.8332 16.4616 15.3141L11.4497 18.2082C10.6313 18.6807 9.61876 18.6807 8.79189 18.2082L3.78001 15.3141C2.96157 14.8416 2.45532 13.9641 2.45532 13.0106V7.2394C2.45532 6.2944 2.96157 5.41687 3.78001 4.93593L8.79189 2.04188C9.61032 1.56938 10.6228 1.56938 11.4497 2.04188L16.4616 4.93593C17.28 5.41687 17.7863 6.28597 17.7863 7.2394Z" stroke="#EBEDFA" stroke-width="1.5" stroke-linecap="round" stroke-linejoin="round"/>
<path d="M10.125 9.28125C11.2108 9.28125 12.091 8.40105 12.091 7.3153C12.091 6.22954 11.2108 5.3494 10.125 5.3494C9.03927 5.3494 8.15909 6.22954 8.15909 7.3153C8.15909 8.40105 9.03927 9.28125 10.125 9.28125Z" stroke="#EBEDFA" stroke-width="1.5" stroke-linecap="round" stroke-linejoin="round"/>
<path d="M13.5 14.0569C13.5 12.5381 11.9897 11.3063 10.125 11.3063C8.26031 11.3063 6.75 12.5381 6.75 14.0569" stroke="#EBEDFA" stroke-width="1.5" stroke-linecap="round" stroke-linejoin="round"/>
</svg>
